<svg id="레이어_2" data-name="레이어 2" xmlns="http://www.w3.org/2000/svg" viewBox="0 0 239.81 240.25"><defs><style>.cls-1{fill:#323232;}</style></defs><title>대지 10</title><path class="cls-1" d="M193.36,93.79V57.4c0-22-23.21-57.4-66.87-57.4H72.64C39.79,0,0,19.7,0,73.88v95c0,35.8,22.36,71.42,71.8,71.42H174.12c17.63,0,66-14.21,66-74.17V144.54C240.16,111.79,233.43,93.79,193.36,93.79ZM76.92,60.25H130a16.77,16.77,0,1,1,0,33.54H76.92a16.77,16.77,0,0,1,0-33.54Zm86.22,119.94H76.92a16.87,16.87,0,0,1,0-33.73h86.22a16.87,16.87,0,0,1,0,33.73Z"/></svg>