<svg id="레이어_1" data-name="레이어 1" xmlns="http://www.w3.org/2000/svg" viewBox="0 0 183.73 183.73"><defs><style>.cls-1{fill:#dd2724;}.cls-2{fill:#242968;}.cls-3{fill:#040000;}</style></defs><title>대지 10</title><path class="cls-1" d="M89.8,95.78h0l62.5-29.1c-45.7-22-101.7-10.9-106.4,3.1S89.8,95.78,89.8,95.78Z"/><path class="cls-2" d="M89.8,95.78,29,124.18c8.8,4,20,7.3,33.6,9.2,39.1,5.5,67.8,3.4,74.7-9.2l1.5-5.5C137.7,103.68,89.8,95.78,89.8,95.78Z"/><path class="cls-3" d="M98.2,137a265.67,265.67,0,0,1-35.7-2.8c-19.8-2.8-36-8.6-47-16.9C6,110,.7,101.18.7,92.48c0-16.1,16.1-24.9,16.8-25.2a1,1,0,0,1,1.4.4,1,1,0,0,1-.4,1.3c-.3.1-15.8,8.6-15.8,23.5,0,15.5,18.6,33.8,60,39.7,45.6,6.4,72.2,2.1,74.9-12.2a7.09,7.09,0,0,0-1.3-5.3c-8.1-11.6-46.3-18-46.7-18.1-1.6-.4-37.4-9.4-43.9-21.3a7.24,7.24,0,0,1-.7-6.1c1.2-3.6,5.3-7,11.9-9.8,21.5-9.1,62.3-10,95.8,6.1,19.6,9.4,29.9,19.9,30.7,31.1.4,5.4-1.3,16-16.9,26.7a1,1,0,1,1-1.1-1.7c5.1-3.5,16.9-12.9,16.1-24.9-.8-10.3-10.8-20.2-29.7-29.3-32.9-15.9-73.1-15-94.1-6-6,2.5-9.8,5.6-10.8,8.5a5.49,5.49,0,0,0,.5,4.5c6.1,11.1,42.3,20.2,42.6,20.3,1.5.3,39.3,6.6,47.9,18.9a8.7,8.7,0,0,1,1.7,6.8C137.1,133.28,118.5,137,98.2,137Z"/><path class="cls-3" d="M29,125a1.08,1.08,0,0,1-.7-.3,1,1,0,0,1-.3-1l16.9-54.5a1,1,0,0,1,1.9.5v.1l-16.2,52.3,121.2-56.5a1,1,0,0,1,1.3.5,1.48,1.48,0,0,1,.1.7L139.4,121a1,1,0,1,1-1.9-.5h0l13.3-52.1L29.4,124.88C29.3,124.88,29.2,125,29,125Z"/></svg>