<svg xmlns="http://www.w3.org/2000/svg" viewBox="0 0 384.44 337.05"><defs><style>.cls-1{fill:none;stroke:#323232;stroke-linecap:round;stroke-linejoin:round;stroke-width:22px;}.cls-2{fill:#323232;}</style></defs><title>대지 10</title><g id="레이어_2" data-name="레이어 2"><path class="cls-1" d="M11.2,11.05H66.92l57.79,203.5c-13,13.89-10.2,40.92,7.86,43.77H330"/><polyline class="cls-1" points="124.71 214.55 327.73 214.55 373.21 55.67 80.72 55.67"/><path class="cls-2" d="M169.42,291.59a11.73,11.73,0,1,1-11.72,11.73,11.74,11.74,0,0,1,11.72-11.73m0-22a33.73,33.73,0,1,0,33.73,33.73,33.73,33.73,0,0,0-33.73-33.73Z"/><path class="cls-2" d="M283.2,291.59a11.73,11.73,0,1,1-11.73,11.73,11.74,11.74,0,0,1,11.73-11.73m0-22a33.73,33.73,0,1,0,33.73,33.73,33.73,33.73,0,0,0-33.73-33.73Z"/></g><g id="레이어_3" data-name="레이어 3"><line class="cls-1" x1="100.98" y1="130.99" x2="351.65" y2="130.99"/><line class="cls-1" x1="226.97" y1="55.67" x2="226.97" y2="214.55"/><line class="cls-1" x1="149.81" y1="55.67" x2="170.6" y2="214.55"/><line class="cls-1" x1="303.74" y1="55.67" x2="275.65" y2="214.55"/></g></svg>