<?xml version="1.0" encoding="utf-8"?>
<!-- Generator: Adobe Illustrator 24.0.1, SVG Export Plug-In . SVG Version: 6.00 Build 0)  -->
<svg version="1.1" xmlns="http://www.w3.org/2000/svg" xmlns:xlink="http://www.w3.org/1999/xlink" x="0px" y="0px"
	 viewBox="0 0 700 93.2" style="enable-background:new 0 0 700 93.2;" xml:space="preserve">
<style type="text/css">
	.st0{display:none;}
	.st1{display:inline;}
	.st2{fill:#ED1F23;}
	.st3{fill:#292672;}
	.st4{fill:#FFFFFF;stroke:#FFFFFF;stroke-width:2;stroke-miterlimit:10;}
	.st5{fill:#FFFFFF;}
</style>
<g id="레이어_2" class="st0">
	<rect class="st1" width="699.7" height="93.3"/>
</g>
<g id="레이어_1">
	<title>자산 1</title>
	<g id="레이어_2_1_">
		<g id="Layer_1">
			<path class="st2" d="M90.7,44.2L90.7,44.2l62.5-29.1C107.5-6.9,51.5,4.2,46.8,18.2S90.7,44.2,90.7,44.2z"/>
			<path class="st3" d="M90.7,44.2L29.9,72.6c8.8,4,20,7.3,33.6,9.2c39.1,5.5,67.8,3.4,74.7-9.2l1.5-5.5
				C138.6,52.1,90.7,44.2,90.7,44.2z"/>
			<path class="st4" d="M99.1,85.4c-12-0.1-23.9-1.1-35.7-2.8c-19.8-2.8-36-8.6-47-16.9C6.9,58.4,1.6,49.6,1.6,40.9
				c0-16.1,16.1-24.9,16.8-25.2c0.5-0.3,1.1-0.1,1.4,0.4c0.2,0.5,0.1,1.1-0.4,1.3C19.1,17.5,3.6,26,3.6,40.9
				c0,15.5,18.6,33.8,60,39.7c45.6,6.4,72.2,2.1,74.9-12.2c0.3-1.9-0.2-3.8-1.3-5.3c-8.1-11.6-46.3-18-46.7-18.1
				c-1.6-0.4-37.4-9.4-43.9-21.3c-1.1-1.8-1.4-4-0.7-6.1c1.2-3.6,5.3-7,11.9-9.8c21.5-9.1,62.3-10,95.8,6.1
				c19.6,9.4,29.9,19.9,30.7,31.1c0.4,5.4-1.3,16-16.9,26.7c-0.5,0.3-1.1,0.2-1.4-0.3s-0.2-1.1,0.3-1.4c5.1-3.5,16.9-12.9,16.1-24.9
				c-0.8-10.3-10.8-20.2-29.7-29.3c-32.9-15.9-73.1-15-94.1-6c-6,2.5-9.8,5.6-10.8,8.5c-0.5,1.5-0.3,3.1,0.5,4.5
				C54.4,33.9,90.6,43,90.9,43.1c1.5,0.3,39.3,6.6,47.9,18.9c1.5,1.9,2.1,4.4,1.7,6.8C138,81.7,119.4,85.4,99.1,85.4z"/>
			<path class="st4" d="M29.9,73.4c-0.2,0-0.5-0.1-0.7-0.3c-0.3-0.3-0.4-0.6-0.3-1l16.9-54.5c0.1-0.5,0.7-0.8,1.2-0.7
				s0.8,0.7,0.7,1.2c0,0,0,0,0,0.1L31.5,70.5L152.7,14c0.5-0.2,1.1,0,1.3,0.5c0.1,0.2,0.1,0.4,0.1,0.7l-13.8,54.2
				c-0.1,0.5-0.7,0.9-1.2,0.7c-0.5-0.1-0.9-0.7-0.7-1.2l0,0l13.3-52.1L30.3,73.3C30.2,73.3,30.1,73.4,29.9,73.4z"/>
			<path class="st5" d="M233.4,71.7l-7.6-42l-1.4-9l-13.7,51.1h-16.3l23.1-70.4h16.3l7.9,42.3l1.2,8.3l13.4-50.7h12l-18.9,70.4
				H233.4z"/>
			<path class="st5" d="M320,40.2c-0.2,0.9-0.6,2.1-1,3.5s-0.9,2.8-1.3,4.1h-36c-0.7,2.2-0.9,4.3-0.6,6.4c0.2,1.8,0.9,3.3,1.9,4.6
				c1.1,1.3,2.4,2.2,4.1,2.9c1.9,0.7,3.9,1,6.1,1c2.9,0,5.7-0.2,8.7-0.7c3.3-0.4,6.6-1.1,9.9-2L309,70.5c-1.5,0.4-3.1,0.8-4.9,1.1
				c-1.8,0.3-3.4,0.7-5.3,0.9c-1.9,0.2-3.5,0.4-5.4,0.6c-1.9,0.1-3.5,0.2-5.2,0.2c-3.9,0.1-7.5-0.6-10.7-1.8c-2.9-1.1-5.3-2.9-7-5.3
				c-1.8-2.4-2.8-5.4-3-8.6c-0.2-3.9,0.2-7.8,1.3-11.9c1.1-4.1,2.8-8.2,5.1-12.1c2-3.4,4.6-6.6,7.7-9.4c2.9-2.6,6.3-4.6,9.7-6.1
				c3.8-1.4,7.6-2.2,11.3-2.1c3.5-0.1,6.8,0.6,9.8,1.8c2.5,1.1,4.6,2.9,6.2,5.1c1.4,2.2,2.3,4.9,2.5,7.7
				C321.3,33.4,321,36.7,320,40.2z M307.2,38.3c0.6-1.9,0.8-3.9,0.7-5.6c-0.1-1.4-0.6-2.9-1.3-4c-0.7-1-1.7-1.8-2.9-2.3
				s-2.5-0.8-4.1-0.8c-3-0.1-6.3,1.1-9,3.3c-2.8,2.2-4.9,5.3-6.3,9.4L307.2,38.3z"/>
			<path class="st5" d="M362,71.7l-7.6-18.4l-17.5,18.4H321l27.9-27.6L336.8,17h16l7.5,18l17-18h14.8l-26.3,27l12.5,27.7H362z"/>
			<path class="st5" d="M434.9,71.2c-2.5,0.6-5.1,1-7.5,1.3c-2.3,0.3-4.6,0.4-7,0.4c-3.2,0.1-6.2-0.3-9-1.1
				c-2.2-0.7-4.1-1.8-5.5-3.4c-1.3-1.7-2.1-3.6-2.2-5.8c-0.1-2.8,0.2-5.6,1.1-8.5l7.2-26.8h-14.7l2.8-10.3h14.7l3.8-14l13.5-0.1
				l-3.8,14h21.3l-2.8,10.3h-21.3l-7,25.7c-0.9,3.1-0.8,5.5,0.3,7.1c1,1.7,3.2,2.4,6.6,2.4c2.1,0,4.3-0.2,6.4-0.6s4.1-0.8,6-1.2
				L434.9,71.2z"/>
			<path class="st5" d="M505.7,50.4c-0.9,3.4-2.5,6.8-4.9,10c-2.1,2.8-4.9,5.2-7.8,7.1c-3.3,2-6.7,3.3-10.3,4.1
				c-4,0.9-8.1,1.3-11.9,1.3c-3.6,0-7.1-0.2-10.6-0.7c-3.3-0.4-6.6-1.2-9.6-2.2l3.5-13c1.5,0.6,3.1,1.1,4.7,1.7
				c1.7,0.6,3.3,0.9,5.1,1.3c1.8,0.3,3.4,0.7,5.2,0.9c1.7,0.2,3.4,0.3,5.2,0.3c2.1,0,4.3-0.2,6.6-0.7c1.7-0.3,3.2-1,4.7-1.8
				c1.2-0.7,2.3-1.5,3.1-2.6c0.8-1.1,1.4-2.2,1.7-3.4c0.4-1.5,0.3-3.1-0.3-4.3c-0.8-1.2-1.8-2.3-3.1-3.1c-1.5-1-3.1-1.8-4.9-2.4
				c-1.9-0.8-3.8-1.4-5.6-2.3c-1.9-0.8-3.8-1.8-5.5-2.8c-1.8-1-3.3-2.3-4.5-3.9c-1.2-1.5-2.1-3.4-2.4-5.5c-0.4-2.4-0.2-5.1,0.6-7.7
				c0.7-2.6,2-5.4,3.6-7.8c1.8-2.5,4-4.7,6.5-6.5c3-2,6.2-3.5,9.5-4.4c4.3-1.2,8.6-1.8,12.7-1.7c1.4,0,2.9,0.1,4.4,0.2
				s3,0.3,4.4,0.4s2.8,0.4,4.1,0.7c1.3,0.2,2.5,0.6,3.5,0.9l-3.1,12.2c-1-0.4-2.2-0.9-3.4-1.2c-1.2-0.3-2.6-0.7-4-1
				c-1.4-0.2-2.8-0.4-4.2-0.7c-1.4-0.1-2.8-0.2-4.2-0.2c-2,0-4,0.1-6.1,0.6c-1.4,0.3-3,0.9-4.4,1.5c-1.1,0.6-2.1,1.4-2.9,2.4
				s-1.3,2.1-1.5,3.2c-0.4,1.4-0.2,2.8,0.4,3.8c0.8,1.2,1.9,2.1,3.2,2.9c1.5,0.9,3.2,1.7,4.9,2.4c1.9,0.8,3.8,1.5,5.7,2.4
				c2,0.9,3.9,1.8,5.6,2.9s3.2,2.4,4.4,4c1.2,1.5,2.1,3.4,2.4,5.5C506.6,45.4,506.4,47.9,505.7,50.4z"/>
			<path class="st5" d="M560.7,71.2c-2.5,0.6-5.1,1-7.5,1.3c-2.3,0.3-4.6,0.4-7,0.4c-3.2,0.1-6.2-0.3-9-1.1
				c-2.2-0.7-4.1-1.8-5.5-3.4c-1.3-1.7-2.1-3.6-2.2-5.8c-0.1-2.8,0.2-5.6,1.1-8.5l7.2-26.8h-14.7l2.8-10.3h14.7l3.7-14l13.5-0.1
				l-3.8,14h21.3l-2.8,10.3h-21.3l-7,25.7c-0.9,3.1-0.8,5.5,0.3,7.1c1,1.7,3.2,2.4,6.6,2.4c2.1,0,4.3-0.2,6.4-0.6
				c2.1-0.3,4.1-0.8,6-1.2L560.7,71.2z"/>
			<path class="st5" d="M634.5,40.2c-0.2,0.9-0.6,2.1-1,3.5s-0.9,2.8-1.3,4.1h-36c-0.7,2.2-0.9,4.3-0.6,6.4c0.2,1.8,0.9,3.3,1.9,4.6
				c1.1,1.3,2.4,2.2,4.1,2.9c1.9,0.7,3.9,1,6,1c2.9,0,5.7-0.2,8.7-0.7c3.3-0.4,6.6-1.1,10-2l-2.8,10.5c-1.5,0.4-3.1,0.8-4.9,1.1
				c-1.8,0.3-3.4,0.7-5.3,0.9c-1.9,0.2-3.5,0.4-5.4,0.6c-1.8,0.1-3.5,0.2-5.2,0.2c-3.9,0-7.5-0.6-10.7-1.9c-2.9-1.1-5.3-2.9-7-5.3
				c-1.8-2.4-2.8-5.4-3-8.6c-0.2-3.9,0.2-7.8,1.4-11.8c1.1-4.1,2.8-8.2,5.1-12.1c2-3.4,4.6-6.6,7.7-9.4c2.9-2.6,6.2-4.6,9.7-6.1
				c3.8-1.4,7.6-2.2,11.3-2.1c3.5-0.1,6.8,0.6,9.8,1.8c2.5,1.1,4.6,2.9,6.2,5.1c1.4,2.2,2.3,4.9,2.5,7.7
				C635.8,33.4,635.4,36.7,634.5,40.2z M621.6,38.3c0.6-1.9,0.8-3.9,0.7-5.6c-0.1-1.4-0.6-2.9-1.3-4c-0.7-1-1.7-1.8-2.9-2.3
				s-2.6-0.8-4.1-0.8c-3-0.1-6.3,1.1-9,3.3c-2.8,2.2-4.9,5.3-6.3,9.4L621.6,38.3z"/>
			<path class="st5" d="M698,43.4c-1.1,4.4-3,8.8-5.6,13c-2.2,3.4-5.1,6.5-8.4,9.2c-3.2,2.4-6.7,4.3-10.4,5.4
				c-4,1.2-7.9,1.8-11.7,1.8c-1.3,0-2.8-0.1-4-0.2s-2.4-0.4-3.5-0.7l-5.7,21.4h-13.1L656,17.1h11.3l-1.9,8.1c1.4-1.3,3-2.6,4.5-3.9
				c1.4-1.1,3.1-2.1,4.6-2.9c1.7-0.8,3.3-1.4,5.1-1.9c1.9-0.4,3.8-0.7,5.6-0.7c3-0.1,5.7,0.6,8.1,2c2.2,1.3,3.9,3.2,4.9,5.5
				c1.1,2.6,1.7,5.5,1.5,8.7C699.7,35.6,699.1,39.5,698,43.4z M684.1,43.9c0.8-2.5,1.2-5.2,1.4-7.7c0.2-1.9,0-3.6-0.4-5.2
				c-0.3-1.2-1.1-2.3-2.2-3c-1.1-0.7-2.3-1-3.8-1c-2.4,0.1-5,1-7.1,2.6c-3,2.2-5.8,4.6-8.4,7.4l-6.4,24c1.1,0.4,2.3,0.8,3.6,1
				c1.4,0.2,3,0.3,4.5,0.3c2,0,4.1-0.4,6.1-1.3c2-0.9,3.9-2.1,5.4-3.6c1.8-1.8,3.2-3.8,4.3-5.7C682.4,49.1,683.4,46.5,684.1,43.9z"
				/>
		</g>
	</g>
</g>
</svg>
