<svg xmlns="http://www.w3.org/2000/svg" viewBox="0 0 572.78 133.48"><defs><style>.cls-1{fill:#ed1b23;}.cls-2{fill:#58595b;}</style></defs><title>자산 2</title><g id="레이어_2" data-name="레이어 2"><g id="Layer_1" data-name="Layer 1"><path class="cls-1" d="M572.75,33.26v-8.4C571.31,3.28,550,0,550,0L495,0V56H447.29V47.89h37.9V30.38H446.82V21.75h42.69V.48H356.86v21h23.75V77.87H402V21.5h23.5V77.39h90.68V59.89h33.58C574.42,55.09,572.75,33.26,572.75,33.26Zm-25,5H515.66V22H547.8a4.23,4.23,0,0,1,3.6,4.32v7.44S552.12,38.3,547.8,38.3Z"/><path class="cls-2" d="M464.14,102.29l-17.79-.05V110h19.32v3.15h-14s-6.12.52-7,6.47V111c0-7.92-8.84-8.44-8.84-8.44H408.08v5.7c-.81-4.17-7.42-5.9-7.42-5.9H389.77c-5,0-8.84,5.39-8.84,5.39v-5.6H347.67V123H334.24V102.33h-8v6.61c-.71-4-7.32-6.61-7.32-6.61H300.26v7.83h18.93v3.45h-11.8s-7.73-.1-8.35,6.22v4s1,6.71,8.66,6.71h19.62v-6.91s1.63,6.81,8.24,6.81h10.89s9.15-1.32,9.15-9V110.67h8.65v20.14h8.13V110.16h7.43v11.49s2.75,8.85,9.15,8.85h11.7c3.76,0,7.42-5.59,7.42-5.59v5.69h8V110.16h6.11V130.6h8.13V110h6.2V130.5h8v-6.81c.47,2.77,2.12,6.77,7.85,6.77H473V109.91S472,103.81,464.14,102.29ZM319.46,122.78H305.62v-3.1h13.84Zm81.61-.11H387.84V110.26h13.23Zm64.33,0H451.76v-2.89H465.4Z"/><polygon class="cls-2" points="473.11 110.4 481.76 110.4 481.76 130.49 489.74 130.49 489.74 110.4 498.39 110.4 498.39 102.21 473.11 102.21 473.11 110.4"/><path class="cls-2" d="M556.73,102.41H536.12v5.71c-.82-4.17-7.43-5.91-7.43-5.91H517.8c-5,0-8.85,5.4-8.85,5.4a3.1,3.1,0,0,0-1.1,1.57V102h-8.34v28.63h8.34v-9.09c.07.23,2.81,8.81,9.14,8.81h11.7c3.76,0,7.43-5.59,7.43-5.59v5.69h8V110.4h13.4v20h8V110.86C565.58,102.93,556.73,102.41,556.73,102.41ZM529.3,122.58H516.08V110.17H529.3Z"/><path class="cls-1" d="M340.19,30.21H308.6s-4,.47-3.77-4.95c.17-4,4.95-3.77,4.95-3.77h47.15V.5h-.16V16.44C356.77,5.07,344.18.5,341.16.5H307.9S294.34-.57,287.4,11.11h0A21.48,21.48,0,0,0,285,16.61c-.06.21-.13.42-.2.63v.09a25.53,25.53,0,0,0,0,13v.35S288.09,47,307.19,47.89h30.88s3.07.24,3.07,4a4.4,4.4,0,0,1-3.07,4H196.13L182.45,77.36,169,56.14H142.14l27.35,39.14-23.34,32.53V112H98.05v-8h37.73V86.08H98.05v-9h42.68V55.91H76.59v23.8c-2.12-21-21-23.09-21-23.09H0v76.51H20V77.47H51.74s3.87-.11,3.87,3.65v52.36H169.25l13.2-21.7,13.45,21.45h26.64L196.13,95,218.77,61.1V77.82h24.52v55.66h21.46V77.12h73.09s23.57.47,23.81-24.51C361.65,52.61,361,32.33,340.19,30.21Z"/></g></g></svg>