<svg xmlns="http://www.w3.org/2000/svg" viewBox="0 0 647.37 132.92"><defs><style>.cls-1{fill:#ed1f23;}.cls-2{fill:#292672;}.cls-3{fill:#000101;}.cls-4{fill:#221e1f;}</style></defs><title>자산 3</title><g id="레이어_2" data-name="레이어 2"><g id="Layer_1" data-name="Layer 1"><path class="cls-1" d="M88.58,67.44h0l62.47-29.13c-45.67-22-101.66-10.92-106.32,3.09S88.58,67.44,88.58,67.44Z"/><path class="cls-2" d="M89.08,67.44,28.31,95.79c8.84,4,20,7.27,33.57,9.19,39.07,5.49,67.79,3.43,74.65-9.24L138,90.2C137,75.35,89.1,67.44,89.08,67.44Z"/><path class="cls-3" d="M97.49,108.59a267.38,267.38,0,0,1-35.75-2.82C42,103,25.82,97.15,14.84,88.87,5.27,81.65,0,72.85,0,64.11,0,48,16.06,39.26,16.75,38.89a1,1,0,0,1,.94,1.77C17.53,40.74,2,49.24,2,64.11,2,79.66,20.56,98,62,103.79c45.61,6.41,72.2,2.08,74.88-12.2a6.73,6.73,0,0,0-1.33-5.28c-8.14-11.62-46.27-18-46.65-18.08C87.32,67.83,51.5,58.82,45,47a7.37,7.37,0,0,1-.7-6.08c1.2-3.6,5.31-7,11.9-9.75,21.47-9.08,62.35-10,95.8,6.08,19.56,9.42,29.9,19.87,30.73,31.06.4,5.39-1.27,16-16.93,26.67a1,1,0,0,1-1.13-1.66c5.13-3.48,16.95-12.88,16.06-24.86C179.94,58,170,48.1,151.12,39,118.19,23.15,78,24.06,57,33c-6,2.52-9.78,5.55-10.78,8.54A5.38,5.38,0,0,0,46.73,46C52.83,57.1,89,66.18,89.32,66.27c1.53.25,39.27,6.59,47.89,18.9A8.77,8.77,0,0,1,138.87,92C136.44,104.93,117.78,108.59,97.49,108.59Z"/><path class="cls-3" d="M28.3,96.59a1,1,0,0,1-.95-1.3L44.28,40.9a1,1,0,0,1,1.91.59L29.93,93.73,151.13,37.2a1,1,0,0,1,1.06.14,1,1,0,0,1,.33,1L138.74,92.53A1,1,0,0,1,136.8,92l13.26-52.13L28.73,96.49A.94.94,0,0,1,28.3,96.59Z"/><path class="cls-3" d="M233.22,64.89,216.13,26.81l-3.52-8.21V64.89H201.68V1.07h14.74l17.43,38.34,3.08,7.47V1.07h10.94V64.89Z"/><path class="cls-3" d="M304.07,36.28c0,.81,0,1.87-.07,3.18s-.13,2.52-.23,3.66H271.16a15.31,15.31,0,0,0,1,5.76A11.3,11.3,0,0,0,275,53.05a12.26,12.26,0,0,0,4.4,2.57,17.54,17.54,0,0,0,5.68.88,56.71,56.71,0,0,0,7.74-.57,60.19,60.19,0,0,0,8.57-1.83v9.48c-1.27.35-2.65.68-4.15,1s-3,.56-4.59.78-3.14.4-4.73.52-3.15.17-4.64.17a30,30,0,0,1-10.16-1.61,20.32,20.32,0,0,1-7.62-4.77,20.82,20.82,0,0,1-4.78-7.78,31.76,31.76,0,0,1-1.66-10.74,34.5,34.5,0,0,1,1.66-11,25.28,25.28,0,0,1,4.69-8.49,20.36,20.36,0,0,1,7.35-5.47,23.31,23.31,0,0,1,9.64-1.93,24.77,24.77,0,0,1,9.32,1.63,18.79,18.79,0,0,1,6.79,4.57,19.49,19.49,0,0,1,4.15,7A26.91,26.91,0,0,1,304.07,36.28ZM292,34.57a14.44,14.44,0,0,0-.73-5.1,10.13,10.13,0,0,0-2.13-3.59,8.44,8.44,0,0,0-3.12-2.1,10.77,10.77,0,0,0-3.84-.68,9.77,9.77,0,0,0-7.37,3q-2.88,3-3.42,8.47Z"/><path class="cls-3" d="M349.77,64.89,338.44,48.2,327.06,64.89h-14.4l18.6-25L313.64,15.28h14.5l11.13,16.31,11-16.31h13.38L346.55,39.8l18,25.09Z"/><path class="cls-3" d="M415.73,64.41c-2.14.48-4.31.88-6.49,1.17A47.18,47.18,0,0,1,403,66a30.2,30.2,0,0,1-8.42-1,14.49,14.49,0,0,1-5.86-3.12,12.36,12.36,0,0,1-3.42-5.35,24.27,24.27,0,0,1-1.1-7.74V24.56H370.91V15.28h13.33V2.59l12.21,0V15.28h19.28v9.28H396.45V47.9c0,2.83.65,5,1.95,6.42s3.48,2.18,6.54,2.18a33.62,33.62,0,0,0,5.72-.49c1.85-.33,3.54-.7,5.07-1.13Z"/><path class="cls-3" d="M474.81,45.61a20.15,20.15,0,0,1-1.92,9.08,17.43,17.43,0,0,1-5.4,6.37,24,24,0,0,1-8.25,3.74A42.44,42.44,0,0,1,448.79,66a78.45,78.45,0,0,1-9.72-.59,57.6,57.6,0,0,1-9.28-2V51.61q2.25.78,4.69,1.47t4.91,1.19c1.64.35,3.28.61,4.91.81a38.59,38.59,0,0,0,4.73.29,24.8,24.8,0,0,0,5.81-.58,12.12,12.12,0,0,0,3.91-1.61,6.3,6.3,0,0,0,2.2-2.45,7.13,7.13,0,0,0,.68-3.12,5.91,5.91,0,0,0-1.34-3.93,12.77,12.77,0,0,0-3.54-2.81,32.48,32.48,0,0,0-5-2.2q-2.81-1-5.71-2.1A59.13,59.13,0,0,1,440.32,34a20.49,20.49,0,0,1-5-3.51,16.45,16.45,0,0,1-3.54-5,16.65,16.65,0,0,1-1.34-7,18.59,18.59,0,0,1,1.37-7.13,15.26,15.26,0,0,1,4.29-5.89,21.79,21.79,0,0,1,7.52-4A36.29,36.29,0,0,1,454.7,0c1.27,0,2.59.06,4,.17s2.75.26,4.1.44,2.65.39,3.9.64,2.41.49,3.45.75V13a34.63,34.63,0,0,0-3.42-1.07c-1.24-.33-2.52-.62-3.83-.86s-2.65-.43-4-.56-2.61-.2-3.81-.2a23.45,23.45,0,0,0-5.37.52,11.69,11.69,0,0,0-3.62,1.41,5.55,5.55,0,0,0-2.05,2.22,6.73,6.73,0,0,0-.63,2.93,4.86,4.86,0,0,0,1.34,3.45,12.79,12.79,0,0,0,3.57,2.58,39,39,0,0,0,5,2.15q2.82,1,5.77,2.15a60.82,60.82,0,0,1,5.76,2.61,22.65,22.65,0,0,1,5,3.57,16.22,16.22,0,0,1,3.56,5A15.73,15.73,0,0,1,474.81,45.61Z"/><path class="cls-3" d="M529.69,64.41c-2.14.48-4.31.88-6.49,1.17A47.18,47.18,0,0,1,517,66a30.2,30.2,0,0,1-8.42-1,14.56,14.56,0,0,1-5.86-3.12,12.36,12.36,0,0,1-3.42-5.35,24.27,24.27,0,0,1-1.1-7.74V24.56H484.87V15.28H498.2V2.59l12.21,0V15.28h19.28v9.28H510.41V47.9c0,2.83.65,5,1.95,6.42s3.48,2.18,6.54,2.18a33.62,33.62,0,0,0,5.72-.49c1.85-.33,3.55-.7,5.07-1.13Z"/><path class="cls-3" d="M589,36.28c0,.81,0,1.87-.07,3.18s-.13,2.52-.22,3.66H556.06a15.31,15.31,0,0,0,1,5.76,11.3,11.3,0,0,0,2.83,4.17,12.26,12.26,0,0,0,4.4,2.57,17.6,17.6,0,0,0,5.69.88,56.94,56.94,0,0,0,7.74-.57,60.07,60.07,0,0,0,8.56-1.83v9.48c-1.27.35-2.65.68-4.15,1s-3,.56-4.59.78-3.14.4-4.73.52-3.14.17-4.64.17A30.08,30.08,0,0,1,558,64.41a20.2,20.2,0,0,1-7.61-4.77,20.72,20.72,0,0,1-4.79-7.78A31.76,31.76,0,0,1,544,41.12a34.5,34.5,0,0,1,1.66-11,25.28,25.28,0,0,1,4.69-8.49,20.54,20.54,0,0,1,7.35-5.47,23.31,23.31,0,0,1,9.64-1.93,24.78,24.78,0,0,1,9.33,1.63,18.84,18.84,0,0,1,6.78,4.57,19.35,19.35,0,0,1,4.15,7A26.65,26.65,0,0,1,589,36.28Zm-12.11-1.71a14.44,14.44,0,0,0-.73-5.1A10,10,0,0,0,574,25.88a8.44,8.44,0,0,0-3.12-2.1,10.75,10.75,0,0,0-3.83-.68,9.78,9.78,0,0,0-7.38,3q-2.88,3-3.42,8.47Z"/><path class="cls-3" d="M647.37,39.21A32.82,32.82,0,0,1,645.44,51a22.54,22.54,0,0,1-5.37,8.27,21.7,21.7,0,0,1-8.13,4.89,31.9,31.9,0,0,1-10.21,1.58,29,29,0,0,1-3.71-.24,27.76,27.76,0,0,1-3.37-.64V84.28H602.74v-69H613l.29,7.33a34.27,34.27,0,0,1,3.15-3.47A18.43,18.43,0,0,1,620,16.48a17,17,0,0,1,4.1-1.68,19.23,19.23,0,0,1,4.94-.59A16.86,16.86,0,0,1,636.87,16a16,16,0,0,1,5.74,5,24.28,24.28,0,0,1,3.54,7.86A40.84,40.84,0,0,1,647.37,39.21Zm-12.5.49a35.57,35.57,0,0,0-.59-7A15.4,15.4,0,0,0,632.6,28a7.07,7.07,0,0,0-2.69-2.71,7.55,7.55,0,0,0-3.64-.85,8.62,8.62,0,0,0-5.78,2.44,41.73,41.73,0,0,0-5.84,6.64V55.18a18.4,18.4,0,0,0,3.49.88,25.78,25.78,0,0,0,4.23.34,11.3,11.3,0,0,0,5.15-1.17,11.42,11.42,0,0,0,4-3.32A15.83,15.83,0,0,0,634,46.66,25.78,25.78,0,0,0,634.87,39.7Z"/><path class="cls-4" d="M239.87,119H224v13.91h-5.94V119H202.43v-4.72h37.44Zm-35.68-11.74c8.46-1,12.87-5.08,13.45-9H205.72V93.5h30.73v4.73H224.71c.58,4,4.95,8,13.36,9L236,111.91c-7.25-1-12.33-4.1-14.81-8.33-2.47,4.23-7.56,7.34-14.8,8.33Z"/><path class="cls-4" d="M286.72,114.11A15.78,15.78,0,0,1,277,106,16.51,16.51,0,0,1,267,114.79L264,110.11c6.93-2.21,9.9-7.61,9.9-12.87v-4h6v4c0,5.17,2.92,10.12,9.63,12.19Zm-16.34,3.78h28.26v15h-6V122.66H270.38Zm28.26-26.5v24.7h-6V91.39Z"/><path class="cls-4" d="M342.51,120.81c3.38-.18,6.75-.4,10-.85l.45,4.27c-9,1.67-18.62,1.72-26,1.72l-.72-4.82c3.11,0,6.62,0,10.31-.09v-3.51c-4.46-.86-7.34-3.65-7.34-7.47,0-4.68,4.23-7.83,10.31-7.83s10.25,3.15,10.25,7.83c0,3.82-2.88,6.61-7.29,7.47Zm9.45-20.2H327.08V96h9.5V91.52h5.93V96H352Zm-12.41,12.74c2.79,0,4.63-1.17,4.63-3.29s-1.84-3.33-4.63-3.33-4.64,1.17-4.64,3.33S336.8,113.35,339.55,113.35Zm21.05-22v41.44h-5.93V91.39Z"/><path class="cls-4" d="M403.13,100.61c0,7.47,2.92,15,9.58,18.27l-3.6,4.68c-4.32-2.2-7.24-6.21-8.95-11.16-1.8,5.27-4.91,9.63-9.59,11.92L387,119.51c7-3.29,10.12-11.21,10.12-18.9v-6h6Zm23.22,11.66h-6v20.56h-5.94V91.39h5.94v15.93h6Z"/><path class="cls-4" d="M499.61,112.85a64.32,64.32,0,0,1-14.54,1.31h-2.79V94.31h5.81v15A64.41,64.41,0,0,0,499,108.17Zm-12.24,4.82h28.57v15.21H510V122.39H487.37ZM501.86,104h-7.25V99.31h7.25V92.2h5.53v23.35h-5.53Zm14.08-12.64v24.48h-5.62V91.39Z"/><path class="cls-4" d="M579.7,123v4.82H542.18V123Zm-3.82-7.1c-7.2-1.44-12.51-5.45-15.16-10.71-2.66,5.26-7.92,9.31-15.12,10.71l-2.52-5c9.31-1.62,14.49-8.19,14.49-14.13v-3h6.34v3c0,6.07,5.13,12.51,14.49,14.13Z"/><path class="cls-4" d="M623.17,112.8a79.51,79.51,0,0,1-14.71.91h-2.84V93.59h15.57v4.73h-9.85v3h8.41v4.45h-8.41V109a69,69,0,0,0,11.34-.86Zm10.31,3.56h5.85v16H611.16v-16h5.89v3.37h16.43Zm0,8H617.05v3.29h16.43Zm-7.88-18.8h-4.09v-4.73h4.09V92.06h5.54v22.41H625.6Zm13.73-14.13v23.35H633.7V91.39Z"/></g></g></svg>